<svg width="25" height="25" viewBox="0 0 25 25" fill="none" xmlns="http://www.w3.org/2000/svg">
<g clip-path="url(#clip0_278_695)">
<path d="M24.3188 12.4805C24.3188 5.85305 18.9463 0.480469 12.3188 0.480469C5.69143 0.480469 0.318848 5.85305 0.318848 12.4805C0.318848 18.4699 4.70705 23.4345 10.4438 24.3347V15.9492H7.39697V12.4805H10.4438V9.83672C10.4438 6.82922 12.2354 5.16797 14.9764 5.16797C16.2889 5.16797 17.6626 5.40234 17.6626 5.40234V8.35547H16.1495C14.6588 8.35547 14.1938 9.28055 14.1938 10.2305V12.4805H17.522L16.9899 15.9492H14.1938V24.3347C19.9306 23.4345 24.3188 18.4699 24.3188 12.4805Z" fill="#1D1D1D"/>
<path d="M16.9899 15.9492L17.522 12.4805H14.1938V10.2305C14.1938 9.28148 14.6588 8.35547 16.1495 8.35547H17.6626V5.40234C17.6626 5.40234 16.2894 5.16797 14.9764 5.16797C12.2354 5.16797 10.4438 6.82922 10.4438 9.83672V12.4805H7.39697V15.9492H10.4438V24.3347C11.6863 24.5291 12.9514 24.5291 14.1938 24.3347V15.9492H16.9899Z" fill="white"/>
</g>
<defs>
<clipPath id="clip0_278_695">
<rect width="24" height="24" fill="white" transform="translate(0.318848 0.480469)"/>
</clipPath>
</defs>
</svg>
