<svg width="25" height="25" viewBox="0 0 25 25" fill="none" xmlns="http://www.w3.org/2000/svg">
<path d="M12.3188 2.64141C15.5251 2.64141 15.9048 2.65547 17.1657 2.71172C18.3376 2.76328 18.9704 2.96016 19.3923 3.12422C19.9501 3.33984 20.3532 3.60234 20.7704 4.01953C21.1923 4.44141 21.4501 4.83984 21.6657 5.39766C21.8298 5.81953 22.0267 6.45703 22.0782 7.62422C22.1345 8.88984 22.1485 9.26953 22.1485 12.4711C22.1485 15.6773 22.1345 16.057 22.0782 17.318C22.0267 18.4898 21.8298 19.1227 21.6657 19.5445C21.4501 20.1023 21.1876 20.5055 20.7704 20.9227C20.3485 21.3445 19.9501 21.6023 19.3923 21.818C18.9704 21.982 18.3329 22.1789 17.1657 22.2305C15.9001 22.2867 15.5204 22.3008 12.3188 22.3008C9.1126 22.3008 8.73291 22.2867 7.47197 22.2305C6.3001 22.1789 5.66729 21.982 5.24541 21.818C4.6876 21.6023 4.28447 21.3398 3.86729 20.9227C3.44541 20.5008 3.1876 20.1023 2.97197 19.5445C2.80791 19.1227 2.61104 18.4852 2.55947 17.318C2.50322 16.0523 2.48916 15.6727 2.48916 12.4711C2.48916 9.26484 2.50322 8.88516 2.55947 7.62422C2.61104 6.45234 2.80791 5.81953 2.97197 5.39766C3.1876 4.83984 3.4501 4.43672 3.86729 4.01953C4.28916 3.59766 4.6876 3.33984 5.24541 3.12422C5.66729 2.96016 6.30479 2.76328 7.47197 2.71172C8.73291 2.65547 9.1126 2.64141 12.3188 2.64141ZM12.3188 0.480469C9.06104 0.480469 8.65322 0.494531 7.37354 0.550781C6.09854 0.607031 5.22197 0.813281 4.4626 1.10859C3.67041 1.41797 3.0001 1.82578 2.33447 2.49609C1.66416 3.16172 1.25635 3.83203 0.946973 4.61953C0.65166 5.38359 0.44541 6.25547 0.38916 7.53047C0.33291 8.81484 0.318848 9.22266 0.318848 12.4805C0.318848 15.7383 0.33291 16.1461 0.38916 17.4258C0.44541 18.7008 0.65166 19.5773 0.946973 20.3367C1.25635 21.1289 1.66416 21.7992 2.33447 22.4648C3.0001 23.1305 3.67041 23.543 4.45791 23.8477C5.22197 24.143 6.09385 24.3492 7.36885 24.4055C8.64854 24.4617 9.05635 24.4758 12.3142 24.4758C15.572 24.4758 15.9798 24.4617 17.2595 24.4055C18.5345 24.3492 19.411 24.143 20.1704 23.8477C20.9579 23.543 21.6282 23.1305 22.2938 22.4648C22.9595 21.7992 23.372 21.1289 23.6767 20.3414C23.972 19.5773 24.1782 18.7055 24.2345 17.4305C24.2907 16.1508 24.3048 15.743 24.3048 12.4852C24.3048 9.22734 24.2907 8.81953 24.2345 7.53984C24.1782 6.26484 23.972 5.38828 23.6767 4.62891C23.3813 3.83203 22.9735 3.16172 22.3032 2.49609C21.6376 1.83047 20.9673 1.41797 20.1798 1.11328C19.4157 0.817969 18.5438 0.611719 17.2688 0.555469C15.9845 0.494531 15.5767 0.480469 12.3188 0.480469Z" fill="#1D1D1D"/>
<path d="M12.3188 6.31641C8.91572 6.31641 6.15479 9.07734 6.15479 12.4805C6.15479 15.8836 8.91572 18.6445 12.3188 18.6445C15.722 18.6445 18.4829 15.8836 18.4829 12.4805C18.4829 9.07734 15.722 6.31641 12.3188 6.31641ZM12.3188 16.4789C10.111 16.4789 8.32041 14.6883 8.32041 12.4805C8.32041 10.2727 10.111 8.48203 12.3188 8.48203C14.5267 8.48203 16.3173 10.2727 16.3173 12.4805C16.3173 14.6883 14.5267 16.4789 12.3188 16.4789Z" fill="#1D1D1D"/>
<path d="M20.1657 6.07285C20.1657 6.86973 19.5188 7.51192 18.7267 7.51192C17.9298 7.51192 17.2876 6.86504 17.2876 6.07285C17.2876 5.27598 17.9345 4.63379 18.7267 4.63379C19.5188 4.63379 20.1657 5.28067 20.1657 6.07285Z" fill="#1D1D1D"/>
</svg>
