<svg width="25" height="25" viewBox="0 0 25 25" fill="none" xmlns="http://www.w3.org/2000/svg">
<g clip-path="url(#clip0_278_698)">
<path d="M12.3188 24.4805C18.9463 24.4805 24.3188 19.1079 24.3188 12.4805C24.3188 5.85305 18.9463 0.480469 12.3188 0.480469C5.69143 0.480469 0.318848 5.85305 0.318848 12.4805C0.318848 19.1079 5.69143 24.4805 12.3188 24.4805Z" fill="white"/>
<path d="M12.3188 0.480469C5.69169 0.480469 0.318848 5.85331 0.318848 12.4805C0.318848 17.5669 3.47934 21.9126 7.94354 23.6607C7.8349 22.7126 7.74601 21.2508 7.98305 20.2138C8.20033 19.2755 9.38551 14.2484 9.38551 14.2484C9.38551 14.2484 9.02996 13.5274 9.02996 12.4706C9.02996 10.8015 9.99786 9.55701 11.2028 9.55701C12.23 9.55701 12.7238 10.3274 12.7238 11.2459C12.7238 12.2731 12.0719 13.8138 11.7263 15.2459C11.4398 16.441 12.3287 17.4187 13.504 17.4187C15.6374 17.4187 17.2769 15.1669 17.2769 11.9274C17.2769 9.05331 15.2127 7.04837 12.2596 7.04837C8.8423 7.04837 6.83737 9.60639 6.83737 12.2533C6.83737 13.2805 7.23243 14.3866 7.72625 14.9891C7.82502 15.1076 7.8349 15.2163 7.80527 15.3348C7.71638 15.7101 7.50897 16.5299 7.46947 16.6978C7.42008 16.915 7.29169 16.9644 7.06453 16.8558C5.56329 16.1545 4.62502 13.9718 4.62502 12.2039C4.62502 8.42121 7.3707 4.94467 12.5559 4.94467C16.7139 4.94467 19.9534 7.90763 19.9534 11.878C19.9534 16.0163 17.346 19.3447 13.7312 19.3447C12.5164 19.3447 11.3707 18.7126 10.9855 17.962C10.9855 17.962 10.383 20.2533 10.2349 20.8163C9.96823 21.8632 9.23737 23.1669 8.74354 23.9669C9.86947 24.3126 11.0547 24.5002 12.2991 24.5002C18.9263 24.5002 24.2991 19.1274 24.2991 12.5002C24.3188 5.85331 18.946 0.480469 12.3188 0.480469Z" fill="#1D1D1D"/>
</g>
<defs>
<clipPath id="clip0_278_698">
<rect width="24" height="24" fill="white" transform="translate(0.318848 0.480469)"/>
</clipPath>
</defs>
</svg>
